<?xml version="1.0" encoding="utf-8"?>
<!-- Generator: Adobe Illustrator 25.2.0, SVG Export Plug-In . SVG Version: 6.00 Build 0)  -->
<svg version="1.1" id="Layer_1" xmlns="http://www.w3.org/2000/svg" xmlns:xlink="http://www.w3.org/1999/xlink" x="0px" y="0px"
	 viewBox="0 0 800 800" style="enable-background:new 0 0 800 800;" xml:space="preserve">
<style type="text/css">
	.st0{fill:#152C70;}
	.st1{fill-rule:evenodd;clip-rule:evenodd;fill:#4296FF;}
</style>
<path class="st0" d="M720,80c-47.4-47.4-124.3-47.4-171.7,0L271.8,356.5c-15,15-25.6,33.7-30.7,54.2l-33.7,134.7
	c-3.3,13.3,0.6,27.3,10.2,36.9c9.7,9.7,23.7,13.5,36.9,10.2l134.7-33.7c20.5-5.1,39.3-15.7,54.2-30.7L720,251.7
	C767.4,204.3,767.4,127.4,720,80z"/>
<path class="st1" d="M11.7,204.8c0-107.4,87.1-194.5,194.5-194.5h194.5c21.5,0,38.9,17.4,38.9,38.9s-17.4,38.9-38.9,38.9H206.2
	c-64.5,0-116.7,52.2-116.7,116.7v389c0,64.5,52.2,116.7,116.7,116.7h389c64.5,0,116.7-52.2,116.7-116.7V399.3
	c0-21.5,17.4-38.9,38.9-38.9s38.9,17.4,38.9,38.9v194.5c0,107.4-87.1,194.5-194.5,194.5h-389c-107.4,0-194.5-87.1-194.5-194.5V204.8
	z"/>
</svg>
