<?xml version="1.0" encoding="utf-8"?>
<!-- Generator: Adobe Illustrator 25.2.0, SVG Export Plug-In . SVG Version: 6.00 Build 0)  -->
<svg version="1.1" id="Layer_1" xmlns="http://www.w3.org/2000/svg" xmlns:xlink="http://www.w3.org/1999/xlink" x="0px" y="0px"
	 viewBox="0 0 800 800" style="enable-background:new 0 0 800 800;" xml:space="preserve">
<style type="text/css">
	.st0{fill-rule:evenodd;clip-rule:evenodd;fill:#FFA526;}
	.st1{fill-rule:evenodd;clip-rule:evenodd;fill:#FFC99B;}
</style>
<path class="st0" d="M203.2,84.8C94.3,84.8,6,173.1,6,282v236.7C6,627.7,94.3,716,203.2,716h394.5c109,0,197.3-88.3,197.3-197.2V282
	c0-108.9-88.3-197.2-197.2-197.2H203.2z"/>
<path class="st1" d="M118.4,180.7c16.8-21.1,47.6-24.4,68.6-7.6l122,97.6c53.4,42.7,129.4,42.7,182.8,0l122-97.6
	c21.1-16.8,51.8-13.5,68.6,7.6s13.5,51.8-7.6,68.6l-122,97.6c-89.1,71.3-215.7,71.3-304.7,0l-122.2-97.8
	C105,232.4,101.6,201.8,118.4,180.7z"/>
</svg>
