<?xml version="1.0" encoding="utf-8"?>
<!-- Generator: Adobe Illustrator 25.2.0, SVG Export Plug-In . SVG Version: 6.00 Build 0)  -->
<svg version="1.1" id="Layer_1" xmlns="http://www.w3.org/2000/svg" xmlns:xlink="http://www.w3.org/1999/xlink" x="0px" y="0px"
	 viewBox="0 0 800 800" style="enable-background:new 0 0 800 800;" xml:space="preserve">
<style type="text/css">
	.st0{fill:#CE4A5C;}
	.st1{fill:#6B2525;}
	.st2{opacity:0.5;fill:#FFFFFF;enable-background:new    ;}
	.st3{fill:#FFFFFF;}
</style>
<g id="SVGRepo_bgCarrier">
</g>
<g id="SVGRepo_tracerCarrier">
</g>
<g id="SVGRepo_iconCarrier">
	<g>
		<path class="st0" d="M118.4,3C83.7,3,55.2,31.6,55.2,66.3v667.4c0,34.7,28.5,63.3,63.3,63.3h568.2c34.7,0,63.3-28.5,63.3-63.3
			V254.9L515.4,3H118.4z"/>
		<path class="st1" d="M749.9,256.1v12.4H591.1c0,0-78.2-16.1-75.7-83.1c0,0,2.5,70.7,74.4,70.7L749.9,256.1L749.9,256.1z"/>
		<path class="st2" d="M515.4,3v181.1c0,21.1,13.6,72,75.7,72h158.8L515.4,3z"/>
	</g>
	<path class="st3" d="M225.4,478.4h-52.1v64.8c0,6.4-4.7,11.1-12.6,11.1c-6.4,0-11.1-4.7-11.1-11.1V381.9c0-9.4,7.9-17.3,17.3-17.3
		h58.5c38,0,60,26.9,60,56.9C285.6,453,263.4,478.4,225.4,478.4z M223.9,385.1h-50.6v72.7h50.6c22.2,0,38-14.3,38-36.3
		C261.7,399.4,245.9,385.1,223.9,385.1z M388.2,554.1h-47.4c-9.4,0-17.3-7.9-17.3-17.3V381.9c0-9.4,7.9-17.3,17.3-17.3h47.4
		c58.5,0,98,41.1,98,94.8C486.2,513.1,448.2,554.1,388.2,554.1z M388.2,385.1h-41.1v147h41.1c45.9,0,72.7-33.2,72.7-74.3
		C462.5,418.2,435.6,385.1,388.2,385.1z M645.8,385.1h-91.7v61.7h90.1c6.4,0,9.4,4.7,9.4,11.1c0,6.4-4.7,9.4-9.4,9.4h-90.1v75.8
		c0,6.4-4.7,11.1-12.6,11.1c-6.4,0-11.1-4.7-11.1-11.1V381.9c0-9.4,7.9-17.3,17.3-17.3h98.1c6.4,0,9.4,4.7,9.4,11.1
		C656.9,380.4,652.2,385.1,645.8,385.1z"/>
</g>
</svg>
