<?xml version="1.0" encoding="utf-8"?>
<!-- Generator: Adobe Illustrator 25.2.0, SVG Export Plug-In . SVG Version: 6.00 Build 0)  -->
<svg version="1.1" id="Capa_1" xmlns="http://www.w3.org/2000/svg" xmlns:xlink="http://www.w3.org/1999/xlink" x="0px" y="0px"
	 viewBox="0 0 800 800" style="enable-background:new 0 0 800 800;" xml:space="preserve">
<style type="text/css">
	.st0{fill:#DC9202;}
</style>
<g id="SVGRepo_bgCarrier">
</g>
<g id="SVGRepo_tracerCarrier">
</g>
<g id="SVGRepo_iconCarrier">
	<g>
		<g>
			<path class="st0" d="M309.7,358.6c1.6,10,5.5,16.3,9.3,20.3c9,60.1,59.3,115.9,105.3,115.9c53.6,0,102.4-60.4,111.8-115.8
				c3.9-4,7.7-10.3,9.4-20.4c3-11.3,7.1-30.9,0.1-40c-0.3-0.5-0.8-0.9-1.1-1.4c6.4-23.6,14.6-72.5-14.6-105.8
				c-2.7-3.3-19.1-23-54.2-33.3l-16.7-5.8c-27.6-8.5-45-10.4-45.8-10.5c-1.3-0.1-2.6,0-3.8,0.3c-1,0.3-4.3,1.2-6.8,0.8
				c-6.6-1-16.5,2.4-18.3,3.1c-2.3,0.9-55.8,22.3-72,72.2c-1.5,4-8,25.2,0.6,77.2c-1.3,0.9-2.4,2-3.4,3.2
				C302.7,327.8,306.6,347.4,309.7,358.6z"/>
			<path class="st0" d="M595.8,514c0,0-2.2-0.7-5.5-1.8c-23.1-10.8-44.9-17.7-44.9-17.7c-4.7-1.6-8.8-3.2-12.6-5
				c-15.6-7.7-28.6-16.4-31.3-24.6c0,0,9.1,87.5-67.4,89.4l-10.6-0.5c-69.2-6.1-73.8-89.2-73.8-89.2c-7.2,22.8-94.3,49.2-94.3,49.2
				c-25.9,9.9-36.8,24.8-36.8,24.8c-38.3,56.8-42.8,183.1-42.8,183.1c0.5,28.9,13,31.9,13,31.9c88,39.2,226.1,46.1,226.1,46.1
				c7.4,0.2,14.4-0.2,21.3-0.6l0.1,0.7c0,0,138.1-7,226.1-46.2c0,0,12.5-3,13-31.8c0,0-4.5-126.3-42.8-183.1
				C632.7,538.7,621.7,523.9,595.8,514z"/>
			<path class="st0" d="M498.5,468.6c1-1.3,2-2.5,3-3.8c-0.2-0.8-0.2-1.3-0.2-1.3C500.4,465.5,499.5,466.9,498.5,468.6z"/>
			<path class="st0" d="M350.2,464.6l-0.2-0.9l-0.2,1c0-0.2,0.2-0.4,0.3-0.5C350,464.1,350.1,464.2,350.2,464.6z"/>
			<path class="st0" d="M422,0C214.4,0,45.4,168.9,45.4,376.5c0,41,7.2,81.8,20.2,120.4l-33.9-7.6c-13.4-3.1-26.6,5.4-29.6,18.7
				s5.4,26.5,18.7,29.5l112.7,25.3c1.8,0.4,3.6,0.6,5.4,0.6c11.3,0,21.6-7.8,24.2-19.3l24.1-107.3c3-13.3-5.4-26.6-18.7-29.6
				c-13.5-2.9-26.6,5.4-29.6,18.7l-8.2,36.5c-8.2-27.7-12.8-56.4-12.8-86C118,208.9,254.4,72.5,422,72.5s304.1,136.4,304.1,304.1
				c0,50.6-12.7,100.6-36.6,144.6l63.7,34.6c29.7-54.7,45.4-116.6,45.4-179.2C798.5,168.9,629.6,0,422,0z"/>
		</g>
	</g>
</g>
</svg>
