<?xml version="1.0" encoding="utf-8"?>
<!-- Generator: Adobe Illustrator 25.2.0, SVG Export Plug-In . SVG Version: 6.00 Build 0)  -->
<svg version="1.1" id="Layer_1" xmlns="http://www.w3.org/2000/svg" xmlns:xlink="http://www.w3.org/1999/xlink" x="0px" y="0px"
	 viewBox="0 0 800 800" style="enable-background:new 0 0 800 800;" xml:space="preserve">
<style type="text/css">
	.st0{fill:#22BF9F;stroke:#22BF9F;stroke-width:16.6667;stroke-miterlimit:66.6667;}
</style>
<g id="SVGRepo_bgCarrier">
</g>
<g id="SVGRepo_tracerCarrier">
</g>
<g id="SVGRepo_iconCarrier">
	<g id="Layer_2_1_">
		<g id="Layer_4">
			<g>
				<circle class="st0" cx="270.2" cy="613.8" r="27.9"/>
				<path class="st0" d="M753.1,558.1v195c0,20.5-16.6,37.1-37.1,37.1H84.5c-20.5,0-37.1-16.6-37.1-37.1v-195
					c-0.7-22.1,11.7-42.4,31.6-52h1.9L218.2,443c7.5-3.8,15.8-5.7,24.1-5.6v98.4c-32.8,12.2-54.9,43-55.7,78
					c0,46.2,37.4,83.6,83.6,83.6s83.6-37.4,83.6-83.6c-0.9-35-22.9-65.8-55.7-78V456l9.3,5.6c57.4,33.6,128.4,33.6,185.7,0l9.3-5.6
					v68.7c-49.1,12.7-83.5,57-83.6,107.7v46.4c0,25.6,20.8,46.4,46.4,46.4h18.6c15.4,0,27.9-12.5,27.9-27.9s-12.5-27.9-27.9-27.9
					h-9.3v-37.1c0-30.8,24.9-55.7,55.7-55.7s55.7,24.9,55.7,55.7v37.1h-9.3c-15.4,0-27.9,12.5-27.9,27.9s12.5,27.9,27.9,27.9h18.6
					c25.6,0,46.4-20.8,46.4-46.4v-46.4c-0.1-50.7-34.4-95-83.6-107.7v-87.3c8.4-0.1,16.7,1.8,24.1,5.6l139.3,63.1
					C741.4,515.7,753.8,536.1,753.1,558.1z"/>
				<circle class="st0" cx="400.2" cy="214.6" r="204.3"/>
			</g>
		</g>
	</g>
</g>
</svg>
