<?xml version="1.0"?>
<svg xmlns="http://www.w3.org/2000/svg" xmlns:xlink="http://www.w3.org/1999/xlink" xmlns:svgjs="http://svgjs.com/svgjs" version="1.1" width="512" height="512" x="0" y="0" viewBox="0 0 512 512" style="enable-background:new 0 0 512 512" xml:space="preserve" class=""><g><g xmlns="http://www.w3.org/2000/svg"><g><path d="m316 0h-60-165c-8.291 0-15 6.709-15 15v482c0 8.291 6.709 15 15 15h165 165c8.291 0 15-6.709 15-15v-377z" fill="#3885d8" data-original="#edf5ff" style="" class=""/><path d="m436 497v-377l-120-120h-60v512h165c8.291 0 15-6.709 15-15z" fill="#1862b0" data-original="#d5e8fe" style="" class=""/><path d="m431.605 94.395-90-90c-2.812-2.813-6.621-4.395-10.605-4.395h-15v105c0 8.284 6.716 15 15 15h105v-15c0-3.984-1.582-7.793-4.395-10.605z" fill="#dedede" data-original="#a8d3d8" style="" class=""/></g><path d="m211 391h-60c-8.291 0-15-6.709-15-15v-90c0-8.291 6.709-15 15-15h60c8.291 0 15 6.709 15 15v90c0 8.291-6.709 15-15 15z" fill="#dedede" data-original="#7ed8f6" style="" class=""/><path d="m361 451h-90c-8.291 0-15-6.709-15-15v-150c0-8.291 6.709-15 15-15h90c8.291 0 15 6.709 15 15v150c0 8.291-6.709 15-15 15z" fill="#d6d6d6" data-original="#6aa9ff" style="" class=""/><path d="m211 451h-60c-8.291 0-15-6.709-15-15s6.709-15 15-15h60c8.291 0 15 6.709 15 15s-6.709 15-15 15z" fill="#dedede" data-original="#7ed8f6" style="" class=""/><path d="m361 150h-105-105c-8.291 0-15 6.709-15 15v61c0 8.291 6.709 15 15 15h105 105c8.291 0 15-6.709 15-15v-61c0-8.291-6.709-15-15-15z" fill="#dedede" data-original="#7ed8f6" style="" class=""/><path d="m376 226v-61c0-8.291-6.709-15-15-15h-105v91h105c8.291 0 15-6.709 15-15z" fill="#d6d6d6" data-original="#6aa9ff" style="" class=""/></g></g></svg>
