<?xml version="1.0"?>
<svg xmlns="http://www.w3.org/2000/svg" xmlns:xlink="http://www.w3.org/1999/xlink" xmlns:svgjs="http://svgjs.com/svgjs" version="1.1" width="512" height="512" x="0" y="0" viewBox="0 0 460 460" style="enable-background:new 0 0 512 512" xml:space="preserve" class=""><g><path xmlns="http://www.w3.org/2000/svg" d="m366.410156 363.53125h-24.410156v-60.460938c0-3.867187-3.132812-7-7-7s-7 3.132813-7 7v60.460938h-76v-60.460938c0-3.867187-3.132812-7-7-7s-7 3.132813-7 7v60.460938h-20.191406c-3.863282 0-7 3.132812-7 7 0 3.863281 3.136718 7 7 7h148.601562c3.867188 0 7-3.136719 7-7 0-3.867188-3.132812-7-7-7zm0 0" fill="#24c0b0" data-original="#6fe3ff" style="" class=""/><path xmlns="http://www.w3.org/2000/svg" d="m71.648438 294.519531c8.851562-.035156 16.851562 5.273438 20.261718 13.441407 3.414063 8.167968 1.5625 17.585937-4.6875 23.855468-6.246094 6.273438-15.65625 8.15625-23.839844 4.777344-8.179687-3.382812-13.515624-11.363281-13.511718-20.214844-.023438-12.050781 9.726562-21.835937 21.777344-21.859375zm0 0" fill="#dcdcdc" data-original="#f8ec7d" style="" class=""/><path xmlns="http://www.w3.org/2000/svg" d="m460 258.140625v21.4375c-.003906 12.972656-10.519531 23.488281-23.488281 23.492187h-293.023438c-12.96875-.003906-23.484375-10.519531-23.488281-23.492187v-21.4375zm0 0" fill="#dcdcdc" data-original="#f8ec7d" style="" class=""/><path xmlns="http://www.w3.org/2000/svg" d="m120 113.429688v32.121093h-120v-65.25h121l.488281.1875c-.988281 2.628907-1.496093 5.414063-1.488281 8.222657zm0 0" fill="#24c0b0" data-original="#6fe3ff" style="" class=""/><path xmlns="http://www.w3.org/2000/svg" d="m120 234.878906v44.699219c.003906 12.972656 10.519531 23.488281 23.488281 23.492187h.511719v67.320313h-144v-224.839844h120zm-26.570312 81.5c-.050782-12.015625-9.824219-21.722656-21.839844-21.6875-12.015625.03125-21.734375 9.792969-21.71875 21.808594s9.761718 21.75 21.777344 21.75c12.054687-.023438 21.808593-9.816406 21.78125-21.871094zm0 0" fill="#1f69b7" data-original="#e48e66" style="" class=""/><path xmlns="http://www.w3.org/2000/svg" d="m144 22.941406v42.277344h-.511719c-9.800781-.003906-18.574219 6.085938-22 15.269531l-.488281-.1875h-121v-57.359375c.0195312-12.660156 10.273438-22.9179685 22.929688-22.941406h97.441406c12.617187 0 23.628906 10.28125 23.628906 22.941406zm0 0" fill="#1f69b7" data-original="#e48e66" style="" class=""/><g xmlns="http://www.w3.org/2000/svg" fill="#f8ec7d"><path d="m120 120.429688h-91c-3.867188 0-7-3.132813-7-7 0-3.867188 3.132812-7 7-7h91c3.867188 0 7 3.132812 7 7 0 3.867187-3.132812 7-7 7zm0 0" fill="#dcdcdc" data-original="#f8ec7d" style="" class=""/><path d="m59 241.878906h-36c-3.867188 0-7-3.132812-7-7 0-3.863281 3.132812-7 7-7h36c3.867188 0 7 3.136719 7 7 0 3.867188-3.132812 7-7 7zm0 0" fill="#dcdcdc" data-original="#f8ec7d" style="" class=""/><path d="m120 241.878906h-37c-3.867188 0-7-3.132812-7-7 0-3.863281 3.132812-7 7-7h37c3.867188 0 7 3.136719 7 7 0 3.867188-3.132812 7-7 7zm0 0" fill="#dcdcdc" data-original="#f8ec7d" style="" class=""/></g><path xmlns="http://www.w3.org/2000/svg" d="m144 65.21875h292.511719c12.96875.003906 23.484375 10.519531 23.488281 23.492188v169.429687h-340v-169.429687c-.007812-2.808594.5-5.59375 1.488281-8.222657 3.425781-9.183593 12.199219-15.273437 22-15.269531zm0 0" fill="#3179c6" data-original="#ed9877" style="" class=""/></g></svg>
