<?xml version="1.0"?>
<svg xmlns="http://www.w3.org/2000/svg" xmlns:xlink="http://www.w3.org/1999/xlink" xmlns:svgjs="http://svgjs.com/svgjs" version="1.1" width="512" height="512" x="0" y="0" viewBox="0 0 280.028 280.028" style="enable-background:new 0 0 512 512" xml:space="preserve" class=""><g>
<g xmlns="http://www.w3.org/2000/svg">
	<path style="" d="M140.014,0c77.331,0,140.014,62.682,140.014,140.014c0,77.323-62.682,140.014-140.014,140.014   S0,217.336,0,140.014C0,62.682,62.682,0,140.014,0z" fill="#228fb4" data-original="#e4e7e7" class=""/>
	<path style="" d="M140.014,43.746c53.161,0,96.259,43.098,96.259,96.259c0,53.153-43.098,96.259-96.259,96.259   s-96.259-43.107-96.259-96.259C43.754,86.843,86.852,43.746,140.014,43.746z" fill="#26a6d1" data-original="#26a6d1" class=""/>
	<path style="" d="M140.014,87.5c28.992,0,52.505,23.505,52.505,52.505s-23.514,52.505-52.505,52.505   s-52.505-23.505-52.505-52.505S111.022,87.5,140.014,87.5z" fill="#324d5b" data-original="#324d5b"/>
	<path style="" d="M179.393,87.5c12.085,0,21.877,9.792,21.877,21.877s-9.792,21.877-21.877,21.877   c-12.085,0-21.877-9.792-21.877-21.877S167.308,87.5,179.393,87.5z" fill="#d4edf6" data-original="#d4edf6"/>
	<path style="" d="M191.04,127.841c-3.544-14.911-13.406-27.355-26.655-34.312c-4.209,3.982-6.869,9.591-6.869,15.848   c0,12.085,9.792,21.877,21.877,21.877C183.689,131.254,187.662,129.976,191.04,127.841z" fill="#d6dbde" data-original="#d6dbde"/>
	<path style="" d="M148.765,227.513c-53.161,0-96.259-43.107-96.259-96.259c0-24.354,9.118-46.528,24.03-63.479   c-20.057,17.642-32.781,43.422-32.781,72.23c0,53.153,43.098,96.259,96.259,96.259c28.808,0,54.588-12.724,72.23-32.781   C195.284,218.395,173.118,227.513,148.765,227.513z" fill="#2296bd" data-original="#2296bd"/>
</g>
<g xmlns="http://www.w3.org/2000/svg">
</g>
<g xmlns="http://www.w3.org/2000/svg">
</g>
<g xmlns="http://www.w3.org/2000/svg">
</g>
<g xmlns="http://www.w3.org/2000/svg">
</g>
<g xmlns="http://www.w3.org/2000/svg">
</g>
<g xmlns="http://www.w3.org/2000/svg">
</g>
<g xmlns="http://www.w3.org/2000/svg">
</g>
<g xmlns="http://www.w3.org/2000/svg">
</g>
<g xmlns="http://www.w3.org/2000/svg">
</g>
<g xmlns="http://www.w3.org/2000/svg">
</g>
<g xmlns="http://www.w3.org/2000/svg">
</g>
<g xmlns="http://www.w3.org/2000/svg">
</g>
<g xmlns="http://www.w3.org/2000/svg">
</g>
<g xmlns="http://www.w3.org/2000/svg">
</g>
<g xmlns="http://www.w3.org/2000/svg">
</g>
</g></svg>
