<?xml version="1.0" encoding="utf-8"?>
<!-- Generator: Adobe Illustrator 25.2.0, SVG Export Plug-In . SVG Version: 6.00 Build 0)  -->
<svg version="1.1" id="Layer_1" xmlns:svgjs="http://svgjs.com/svgjs"
	 xmlns="http://www.w3.org/2000/svg" xmlns:xlink="http://www.w3.org/1999/xlink" x="0px" y="0px" viewBox="0 0 512 512"
	 style="enable-background:new 0 0 512 512;" xml:space="preserve">
<style type="text/css">
	.st0{fill:#B2B2B2;stroke:#D80E21;stroke-width:6;stroke-miterlimit:10;}
	.st1{fill:#C22D2D;}
	.st2{fill:#A23030;}
	.st3{fill:#FF9999;}
	.st4{fill:#EF8A8A;}
	.st5{fill:#DCF3FF;}
</style>
<g>
	<circle class="st0" cx="256" cy="256" r="203"/>
	<path class="st1" d="M256,105.5c-123.2,0-226.4,111.1-253,142.4c-4,4.7-4,11.5,0,16.2c26.6,31.3,129.8,142.4,253,142.4
		s226.4-111.1,253-142.4c4-4.7,4-11.5,0-16.2C482.4,216.6,379.2,105.5,256,105.5z"/>
	<path class="st2" d="M42,256c0-24.3,95.8-150.5,214-150.5c-122.2,0-224.7,109.3-252.3,141.6c-4.4,5.1-4.4,12.7,0,17.8
		C31.3,297.2,133.8,406.5,256,406.5C137.8,406.5,42,280.3,42,256z"/>
	<circle class="st3" cx="256" cy="256" r="132"/>
	<path class="st4" d="M176,256c0-64,45.6-117.4,106-129.4c-8.4-1.7-17.1-2.6-26-2.6c-72.9,0-132,59.1-132,132s59.1,132,132,132
		c8.9,0,17.6-0.9,26-2.6C221.6,373.4,176,320,176,256L176,256z"/>
	<circle class="st2" cx="254.6" cy="256" r="65.6"/>
	<circle class="st5" cx="308.1" cy="225.6" r="27.9"/>
</g>
</svg>
