<?xml version="1.0" standalone="no"?>
<!DOCTYPE svg PUBLIC "-//W3C//DTD SVG 20010904//EN"
 "http://www.w3.org/TR/2001/REC-SVG-20010904/DTD/svg10.dtd">
<svg version="1.0" xmlns="http://www.w3.org/2000/svg"
 width="512.000000pt" height="512.000000pt" viewBox="0 0 512.000000 512.000000"
 preserveAspectRatio="xMidYMid meet">

<g transform="translate(0.000000,512.000000) scale(0.100000,-0.100000)"
fill="#000000" stroke="none">
<path d="M623 1955 c0 -33 2 -45 4 -27 2 18 2 45 0 60 -2 15 -4 0 -4 -33z"/>
<path d="M1164 1768 l-19 -23 23 19 c21 18 27 26 19 26 -2 0 -12 -10 -23 -22z"/>
<path d="M634 1663 c2 -94 -5 -111 -35 -92 -8 5 -18 9 -24 9 -5 0 -3 -4 5 -10
8 -5 11 -12 7 -16 -9 -10 -28 8 -31 30 -3 19 -19 23 -24 7 -2 -6 2 -11 9 -11
9 0 10 -3 3 -10 -13 -13 -64 4 -64 22 0 6 -7 3 -16 -8 -13 -16 -15 -16 -10 -2
3 10 1 20 -5 23 -5 4 -9 3 -8 -2 4 -24 -3 -43 -17 -43 -10 0 -12 5 -7 13 4 6
-5 4 -21 -6 -15 -10 -30 -16 -34 -13 -3 3 0 6 6 6 7 0 12 9 12 20 0 14 -5 18
-16 13 -13 -5 -13 -7 -2 -14 10 -7 9 -9 -5 -9 -12 0 -16 -4 -11 -12 5 -9 2 -8
-9 1 -14 11 -15 17 -5 30 12 14 11 15 -6 1 -11 -8 -22 -13 -25 -11 -17 10 -51
19 -49 13 1 -4 -3 -16 -7 -26 -10 -22 82 -213 169 -354 116 -186 307 -410 464
-546 292 -252 547 -398 892 -510 280 -92 500 -127 790 -127 295 0 514 36 801
131 338 112 588 255 875 501 220 189 432 461 569 730 79 155 101 211 79 202
-7 -3 -11 -9 -8 -14 7 -12 -3 -11 -27 1 -13 7 -19 7 -19 0 0 -5 7 -10 15 -10
8 0 15 -4 15 -10 0 -5 -5 -9 -12 -7 -17 3 -37 21 -32 29 2 4 -1 10 -7 14 -7 4
-9 3 -5 -4 3 -6 1 -14 -5 -18 -7 -4 -8 -9 -1 -13 6 -4 5 -10 -3 -18 -10 -9
-17 -7 -31 10 -10 12 -12 16 -4 10 8 -7 19 -13 25 -13 5 1 -1 10 -14 21 l-25
20 -13 -23 c-13 -23 -13 -23 -7 5 5 22 3 26 -10 21 -9 -3 -16 -13 -16 -21 0
-13 -3 -13 -25 1 -25 17 -25 16 -21 -9 3 -15 1 -23 -5 -20 -5 4 -7 10 -5 14 3
4 1 13 -4 21 -8 12 -12 12 -22 2 -10 -10 -10 -14 0 -21 11 -7 10 -10 -3 -14
-9 -4 -13 -3 -10 3 3 6 -1 10 -10 10 -8 0 -18 7 -21 15 -4 8 -10 12 -15 9 -5
-3 -7 -10 -3 -15 3 -5 0 -8 -8 -7 -8 2 -12 -4 -9 -17 3 -18 1 -19 -15 -5 -21
17 -42 19 -62 6 -24 -14 -24 1 -1 23 12 11 19 24 16 28 -4 3 -13 -2 -21 -12
-8 -11 -18 -15 -26 -10 -8 5 -11 4 -7 -3 5 -6 -1 -8 -14 -5 -13 4 -17 8 -9 13
8 5 7 9 -4 13 -9 4 -16 3 -17 -1 -2 -24 -8 -45 -15 -50 -4 -4 -4 1 -1 11 7 20
-3 22 -23 5 -12 -11 -12 -10 -2 4 10 12 10 18 1 23 -6 4 -15 2 -19 -5 -4 -6
-11 -12 -16 -13 -5 -1 -8 -11 -7 -22 2 -18 1 -18 -9 3 -6 12 -15 22 -20 22 -5
0 -6 6 -2 13 6 9 5 9 -7 0 -12 -10 -18 -10 -29 0 -10 10 -12 9 -7 -5 4 -12 1
-16 -12 -15 -11 0 -17 6 -15 12 3 6 -5 11 -16 12 -11 1 -18 -2 -15 -7 9 -15
-12 -20 -25 -5 -6 7 -18 11 -26 8 -11 -4 -12 -9 -3 -19 9 -11 8 -14 -4 -14
-14 0 -32 26 -29 43 3 10 -6 9 -28 -3 -12 -7 -28 -7 -44 0 -21 7 -26 6 -26 -5
0 -8 -3 -15 -7 -16 -5 0 -16 -2 -25 -4 -10 -2 -18 1 -18 5 0 5 8 11 18 13 15
4 15 5 -2 6 -10 0 -24 -7 -31 -16 -11 -15 -13 -15 -19 5 -9 27 -16 27 -47 4
-13 -11 -33 -18 -44 -16 -56 9 -70 8 -67 -4 1 -8 -2 -11 -9 -7 -6 4 -9 16 -6
26 4 16 2 17 -14 8 -11 -5 -23 -7 -28 -5 -18 11 -71 -6 -71 -23 0 -9 -3 -12
-8 -6 -10 15 -31 13 -43 -5 -10 -13 -10 -13 -6 0 3 9 -1 24 -9 35 -13 17 -14
17 -14 1 0 -9 -4 -15 -9 -11 -5 3 -12 1 -16 -5 -4 -6 -11 -8 -16 -5 -5 4 -9 0
-9 -7 0 -8 -3 -9 -8 -2 -9 13 -102 13 -102 0 0 -5 -3 -6 -6 -3 -4 4 -1 13 5
21 9 11 9 16 0 22 -8 4 -9 3 -5 -4 4 -7 -4 -14 -21 -18 -15 -3 -33 -7 -40 -9
-7 -2 -10 2 -6 11 3 7 0 14 -5 14 -6 0 -13 -8 -15 -17 -4 -17 -5 -17 -6 -1 0
10 16 42 36 70 52 75 28 50 -68 -72 -89 -113 -137 -169 -358 -415 -79 -88
-150 -164 -157 -168 -27 -16 -14 14 34 76 85 109 341 465 396 550 66 103 68
107 63 107 -3 0 -28 -36 -57 -80 -29 -44 -55 -78 -58 -75 -3 3 -10 1 -17 -5
-15 -12 -56 -1 -49 14 3 6 -1 3 -9 -6 -16 -21 -32 -24 -21 -5 5 8 2 8 -9 -2
-12 -9 -17 -10 -17 -2 0 6 7 14 16 18 12 4 13 8 3 14 -15 9 -42 -9 -33 -22 3
-5 -6 -9 -20 -9 -14 0 -26 4 -26 10 0 5 6 8 13 6 6 -1 9 -1 5 1 -4 3 -10 4
-14 3 -4 -1 -11 4 -16 12 -6 9 -8 8 -6 -7 2 -14 -2 -19 -12 -16 -49 12 -63 13
-56 3 3 -6 2 -13 -4 -17 -5 -3 -10 -1 -10 5 0 35 -52 46 -64 14 -3 -8 -10 -14
-16 -14 -6 0 -9 4 -6 9 3 5 0 14 -8 20 -11 9 -12 6 -8 -16 5 -26 4 -27 -12
-10 -21 21 -21 21 -40 1 -15 -14 -16 -14 -16 0 0 9 -5 16 -11 16 -5 0 -8 -3
-5 -8 7 -11 -77 -2 -92 11 -18 14 -27 1 -12 -18 8 -10 9 -15 1 -15 -6 0 -11 4
-11 10 0 5 -7 7 -15 4 -9 -4 -15 -1 -15 7 0 10 -3 10 -12 1 -10 -10 -15 -8
-24 9 -10 19 -12 19 -17 5 -5 -12 -3 -15 6 -10 7 5 5 0 -3 -11 -13 -16 -15
-16 -18 -2 -4 21 -21 22 -28 2 -4 -8 -11 -15 -16 -15 -6 0 -8 7 -5 14 4 9 1
13 -6 11 -42 -12 -68 -15 -62 -5 3 5 -1 10 -9 10 -9 0 -16 -4 -16 -8 0 -8 -14
-12 -52 -13 -11 0 -15 -6 -12 -17 5 -15 4 -15 -6 1 -6 9 -9 21 -5 26 3 5 1 12
-5 16 -6 4 -7 11 -4 17 4 7 2 8 -5 4 -6 -4 -9 -11 -6 -16 3 -5 -8 -15 -24 -23
-25 -12 -29 -12 -24 -1 3 9 -1 14 -12 14 -10 0 -14 5 -9 13 4 6 -2 3 -14 -7
-12 -11 -22 -15 -22 -10 0 5 -5 2 -10 -6 -8 -13 -11 -12 -24 5 -13 17 -15 18
-16 3 0 -9 -4 -19 -9 -22 -5 -4 -7 2 -4 13 3 10 0 22 -6 25 -15 9 -33 -3 -25
-16 4 -6 10 -5 16 3 8 12 9 12 6 0 -2 -8 -14 -16 -26 -17 -16 -3 -20 0 -15 12
5 14 3 14 -16 3 -11 -8 -21 -17 -21 -21 0 -20 -41 -6 -50 17 -6 16 -15 23 -25
19 -8 -3 -12 -11 -9 -16 4 -6 10 -5 15 3 7 11 9 10 9 -4 0 -14 -5 -17 -21 -12
-16 5 -19 4 -14 -5 5 -9 4 -11 -4 -6 -6 4 -9 12 -6 17 6 8 -9 13 -29 10 -4 -1
-15 4 -24 11 -12 10 -14 10 -8 1 4 -8 2 -13 -6 -14 -7 0 -4 -4 7 -9 16 -7 17
-9 3 -9 -28 -1 -51 11 -38 19 9 6 9 9 0 15 -7 4 -13 -1 -17 -14 -3 -11 -9 -18
-14 -15 -5 3 -7 9 -4 14 3 4 -5 6 -17 2 -16 -4 -19 -2 -13 8 5 9 4 11 -4 6 -7
-5 -9 -16 -5 -29 6 -20 6 -20 -10 -4 -19 18 -51 24 -41 7 4 -6 -2 -7 -18 -1
-20 8 -26 6 -35 -12 -6 -12 -11 -16 -11 -8 -1 11 -4 11 -16 1 -9 -7 -15 -8
-15 -2 0 5 -11 13 -25 16 -14 4 -23 10 -21 15 3 5 -3 11 -14 14 -11 3 -23 0
-27 -5 -4 -7 -1 -8 7 -3 9 6 11 4 5 -5 -6 -10 -11 -9 -22 5 -7 11 -13 14 -13
8 0 -7 7 -19 16 -27 20 -21 5 -20 -25 1 -22 15 -25 15 -36 0 -13 -18 -25 -13
-25 10 0 8 5 11 12 7 7 -4 8 -3 4 5 -6 9 -17 6 -44 -9 -24 -15 -32 -16 -23 -6
18 21 -3 21 -23 0 -12 -12 -16 -12 -16 -2 0 10 -3 9 -10 -2 -6 -9 -10 -11 -10
-3 0 7 -6 10 -13 7 -8 -3 -20 2 -27 10 -7 9 -16 13 -21 10 -15 -9 -10 -24 7
-24 8 0 12 -5 9 -10 -4 -6 -10 -8 -15 -5 -4 3 -11 0 -13 -5 -3 -6 -4 -5 -3 2
5 19 -12 48 -27 48 -7 0 -13 -9 -13 -20 0 -14 5 -19 16 -15 11 5 12 3 3 -6
-13 -13 -33 -4 -33 17 0 18 -18 18 -62 0 -29 -13 -40 -28 -70 -93 -61 -134
-96 -271 -114 -445 -6 -63 -8 -68 -30 -68 -17 0 -28 8 -35 28 -46 119 -109
414 -128 592 -17 163 -19 172 -17 73z m3249 -87 c4 -10 0 -12 -15 -8 -15 4
-17 7 -6 13 17 11 15 11 21 -5z m-3593 -6 c0 -5 -9 -10 -21 -10 -11 0 -17 5
-14 10 3 6 13 10 21 10 8 0 14 -4 14 -10z m785 0 c-3 -5 -11 -10 -16 -10 -6 0
-7 5 -4 10 3 6 11 10 16 10 6 0 7 -4 4 -10z m1040 1 c3 -5 2 -12 -3 -15 -5 -3
-9 1 -9 9 0 17 3 19 12 6z m685 -1 c0 -5 -4 -10 -10 -10 -5 0 -10 5 -10 10 0
6 5 10 10 10 6 0 10 -4 10 -10z m854 -5 c-10 -8 -23 -14 -29 -14 -5 0 -1 6 9
14 11 8 24 15 30 15 5 0 1 -7 -10 -15z m406 5 c0 -5 -4 -10 -10 -10 -5 0 -10
5 -10 10 0 6 5 10 10 10 6 0 10 -4 10 -10z m-3587 -15 c-3 -9 -8 -14 -10 -11
-3 3 -2 9 2 15 9 16 15 13 8 -4z m1217 5 c0 -5 -5 -10 -11 -10 -5 0 -7 5 -4
10 3 6 8 10 11 10 2 0 4 -4 4 -10z m1574 -6 c3 -8 2 -12 -4 -9 -6 3 -10 10
-10 16 0 14 7 11 14 -7z m766 6 c0 -5 -4 -10 -10 -10 -5 0 -10 5 -10 10 0 6 5
10 10 10 6 0 10 -4 10 -10z m-3700 -9 c0 -6 -4 -13 -10 -16 -5 -3 -10 1 -10 9
0 9 5 16 10 16 6 0 10 -4 10 -9z m304 -6 c-4 -8 -11 -12 -16 -9 -6 4 -5 10 3
15 19 12 19 11 13 -6z"/>
<path d="M1077 1678 c-19 -24 -42 -55 -52 -71 -15 -24 -15 -27 -2 -21 9 3 15
9 14 13 -1 4 17 33 40 64 50 67 50 76 0 15z"/>
<path d="M490 1606 c0 -2 8 -10 18 -17 15 -13 16 -12 3 4 -13 16 -21 21 -21
13z"/>
<path d="M1895 1600 c3 -5 8 -10 11 -10 2 0 4 5 4 10 0 6 -5 10 -11 10 -5 0
-7 -4 -4 -10z"/>
<path d="M2388 1598 c5 -5 16 -8 23 -6 8 3 3 7 -10 11 -17 4 -21 3 -13 -5z"/>
<path d="M3080 1599 c0 -5 -4 -8 -9 -4 -5 3 -13 0 -17 -6 -5 -8 -3 -9 6 -4 10
6 12 3 7 -11 -7 -18 -7 -18 8 0 15 20 20 36 10 36 -3 0 -5 -5 -5 -11z"/>
<path d="M225 1590 c3 -5 8 -10 11 -10 2 0 4 5 4 10 0 6 -5 10 -11 10 -5 0 -7
-4 -4 -10z"/>
<path d="M1527 1591 c-22 -8 -19 -25 6 -26 10 -1 17 5 17 17 0 10 -1 18 -2 17
-2 0 -11 -4 -21 -8z"/>
<path d="M1916 1584 c-11 -7 -17 -16 -15 -19 3 -3 14 2 25 9 10 8 17 17 14 19
-3 3 -14 -1 -24 -9z"/>
<path d="M2234 1580 c0 -15 4 -16 18 -9 10 5 18 15 17 22 0 9 -2 8 -6 -1 -3
-9 -9 -10 -17 -3 -8 7 -12 5 -12 -9z"/>
<path d="M3416 1591 c8 -9 44 -11 44 -3 0 4 -11 8 -25 8 -13 0 -22 -2 -19 -5z"/>
<path d="M3474 1588 c-3 -4 2 -8 10 -8 8 0 17 4 20 8 3 5 -2 9 -10 9 -8 0 -17
-4 -20 -9z"/>
<path d="M3586 1591 c-3 -4 6 -6 19 -3 14 2 25 6 25 8 0 8 -39 4 -44 -5z"/>
<path d="M4280 1590 c0 -5 7 -7 15 -4 8 4 15 8 15 10 0 2 -7 4 -15 4 -8 0 -15
-4 -15 -10z"/>
<path d="M4510 1590 c13 -8 13 -10 -2 -10 -26 0 -29 -15 -3 -16 14 -1 25 5 28
15 3 12 -2 17 -17 19 -17 1 -18 -1 -6 -8z"/>
</g>
</svg>
