<!DOCTYPE svg PUBLIC "-//W3C//DTD SVG 1.1//EN" "http://www.w3.org/Graphics/SVG/1.1/DTD/svg11.dtd">
<!-- Uploaded to: SVG Repo, www.svgrepo.com, Transformed by: SVG Repo Mixer Tools -->
<svg height="800px" width="800px" version="1.1" id="Layer_1" xmlns="http://www.w3.org/2000/svg" xmlns:xlink="http://www.w3.org/1999/xlink" viewBox="0 0 512 512" xml:space="preserve" fill="#000000">
<g id="SVGRepo_bgCarrier" stroke-width="0"/>
<g id="SVGRepo_tracerCarrier" stroke-linecap="round" stroke-linejoin="round"/>
<g id="SVGRepo_iconCarrier"> <path style="fill:#ae00ae;" d="M427.488,512H84.512c-25.876,0-46.927-21.051-46.927-46.927V46.927C37.585,21.051,58.636,0,84.512,0 h342.976c25.876,0,46.927,21.051,46.927,46.927v103.5c0,8.33-6.754,15.082-15.082,15.082s-15.082-6.752-15.082-15.082v-103.5 c0-9.244-7.52-16.763-16.763-16.763H84.512c-9.244,0-16.763,7.52-16.763,16.763v418.146c0,9.244,7.52,16.763,16.763,16.763h342.976 c9.244,0,16.763-7.52,16.763-16.763V256c0-8.33,6.754-15.082,15.082-15.082s15.082,6.752,15.082,15.082v209.073 C474.415,490.949,453.364,512,427.488,512z"/> <path style="fill:#ffbfff;" d="M296.466,313.215c-1.363,0-2.71,0.072-4.046,0.178v-30.911l-65.075-26.483l65.075-26.483v-30.911 c1.336,0.106,2.683,0.178,4.046,0.178c28.159,0,50.987-22.828,50.987-50.987c0-28.161-22.828-50.988-50.987-50.988 c-16.492,0-31.147,7.836-40.466,19.982c-9.319-12.145-23.974-19.982-40.466-19.982c-28.159,0-50.987,22.828-50.987,50.988 c0,28.159,22.828,50.987,50.987,50.987c1.363,0,2.71-0.072,4.046-0.178V313.39c-1.336-0.106-2.683-0.178-4.046-0.178 c-28.159,0-50.987,22.828-50.987,50.987s22.828,50.988,50.987,50.988c16.492,0,31.147-7.838,40.466-19.982 c9.319,12.145,23.974,19.982,40.466,19.982c28.159,0,50.987-22.828,50.987-50.988C347.454,336.043,324.626,313.215,296.466,313.215z "/> <path style="fill:#ae00ae;" d="M296.466,430.272c-14.926,0-29.028-4.906-40.466-13.813c-11.436,8.906-25.538,13.813-40.466,13.813 c-36.431,0-66.07-29.639-66.07-66.07c0-32.672,23.84-59.88,55.035-65.148v-86.111c-31.195-5.268-55.035-32.477-55.035-65.147 c0-36.431,29.639-66.07,66.07-66.07c14.928,0,29.029,4.906,40.466,13.812c11.438-8.906,25.539-13.812,40.466-13.812 c36.43,0,66.07,29.639,66.07,66.07c0,32.67-23.838,59.879-55.033,65.147v16.573c0,6.134-3.716,11.657-9.396,13.969l-30.75,12.513 l30.75,12.513c5.681,2.312,9.396,7.835,9.396,13.969v16.573c31.197,5.268,55.033,32.477,55.033,65.147 C362.536,400.635,332.896,430.272,296.466,430.272z M256,380.127c4.687,0,9.111,2.181,11.966,5.9 c6.868,8.949,17.255,14.082,28.5,14.082c19.799,0,35.907-16.107,35.907-35.907s-16.107-35.907-35.907-35.907 c-0.811,0-1.721,0.042-2.861,0.131c-4.176,0.33-8.331-1.104-11.421-3.96c-3.089-2.855-4.844-6.87-4.844-11.075v-20.766 l-42.675-17.367v38.133c0,4.206-1.757,8.221-4.844,11.075c-3.089,2.855-7.233,4.282-11.421,3.96c-1.14-0.09-2.05-0.131-2.863-0.131 c-19.798,0-35.907,16.107-35.907,35.907s16.107,35.907,35.907,35.907c11.246,0,21.633-5.132,28.5-14.082 C246.889,382.308,251.311,380.127,256,380.127z M219.581,183.525c3.779,0,7.44,1.421,10.236,4.007 c3.089,2.855,4.844,6.87,4.844,11.075v38.133l42.675-17.367v-20.766c0-4.206,1.756-8.221,4.844-11.075 c3.09-2.855,7.23-4.286,11.421-3.96c1.142,0.09,2.05,0.131,2.861,0.131c19.799,0,35.907-16.107,35.907-35.905 c0-19.798-16.107-35.907-35.907-35.907c-11.245,0-21.633,5.132-28.5,14.082c-2.855,3.719-7.277,5.9-11.966,5.9l0,0 c-4.689,0-9.111-2.181-11.966-5.9c-6.867-8.949-17.255-14.082-28.5-14.082c-19.798,0-35.907,16.107-35.907,35.907 s16.107,35.905,35.907,35.905c0.813,0,1.722-0.042,2.863-0.131C218.792,183.54,219.187,183.525,219.581,183.525z"/> </g>
</svg>