<?xml version="1.0" encoding="utf-8"?>
<!-- Generator: Adobe Illustrator 25.2.0, SVG Export Plug-In . SVG Version: 6.00 Build 0)  -->
<svg version="1.1" id="Layer_1" xmlns="http://www.w3.org/2000/svg" xmlns:xlink="http://www.w3.org/1999/xlink" x="0px" y="0px"
	 viewBox="0 0 800 800" style="enable-background:new 0 0 800 800;" xml:space="preserve">
<style type="text/css">
	.st0{fill:#3AB1FF;}
	.st1{fill:#2E5CFF;}
	.st2{fill:#0027FD;}
	.st3{fill:#200CE2;}
</style>
<path class="st0" d="M402.9,740l-68-111.6c-9.6-15.8-12.4-35.2-7.5-53l36.1-132.8c2.9-10.7-6.9-20.5-17.6-17.6l-132.8,36.1
	c-17.9,4.9-37.2,2.1-53-7.5l-111.6-68C0.3,356.2,7,284.4,59.6,264.4L668.8,32.1c54.7-20.9,108.3,32.8,87.5,87.5L524.1,728.9
	C504,781.5,432.1,788,402.9,740z"/>
<path class="st1" d="M668.8,32.1l-333,126.9l293.6,293.6l126.9-333C777.1,64.9,723.5,11.3,668.8,32.1z"/>
<path class="st2" d="M487.4,449.9c-13.8-5.3-20.7-20.7-15.5-34.5l60.9-159.8L373,316.5c-13.8,5.3-29.2-1.7-34.5-15.5
	c-5.3-13.8,1.7-29.2,15.5-34.5l215.6-82.2c21.5-8.2,42.7,13,34.5,34.5l-82.2,215.6C516.6,448.3,501.2,455.2,487.4,449.9z"/>
<path class="st3" d="M569.5,184.4l-150.9,57.5l41.4,41.4l72.8-27.7l-27.7,72.8l41.4,41.4L604,218.9
	C612.2,197.4,591,176.2,569.5,184.4z"/>
</svg>
