<?xml version="1.0"?>
<svg xmlns="http://www.w3.org/2000/svg" xmlns:xlink="http://www.w3.org/1999/xlink" xmlns:svgjs="http://svgjs.com/svgjs" version="1.1" width="512" height="512" x="0" y="0" viewBox="0 0 512 512" style="enable-background:new 0 0 512 512" xml:space="preserve" class=""><g><g xmlns="http://www.w3.org/2000/svg"><path d="m460.8 256v-68.267c0-28.277-22.923-51.2-51.2-51.2h-124.932c-6.43 0-11.609 5.262-11.601 11.692.01 7.825 1.256 15.362 3.534 22.442h-241.792c-19.126 0-35.156 15.652-34.803 34.775.342 18.546 15.5 33.492 34.127 33.492h34.134v204.8h307.2 34.133c28.28 0 51.2-22.921 51.2-51.2h36.2c8.284 0 15-6.716 15-15v-106.534c0-8.284-6.716-15-15-15z" fill="#ffdcc8" data-original="#ffdcc8" style="" class=""/><path d="m330.105 0h-216.476c-25.013 0-45.362 20.349-45.362 45.361v421.277c0 25.012 20.35 45.361 45.362 45.361h216.476c25.012 0 45.362-20.349 45.362-45.361v-421.277c0-25.012-20.35-45.361-45.362-45.361z" fill="#2874c4" data-original="#00366d" style="" class=""/><path d="m375.467 466.639v-421.278c0-25.012-20.35-45.361-45.362-45.361h-108.238v512h108.238c25.012 0 45.362-20.349 45.362-45.361z" fill="#1862b0" data-original="#01223c" style="" class=""/><path d="m328.333 30h-17.133v17.133c0 26.031-21.102 47.133-47.133 47.133h-84.4c-26.031 0-47.133-21.102-47.133-47.133v-17.133h-17.133c-9.447 0-17.134 7.686-17.134 17.133v417.733c0 9.447 7.687 17.133 17.134 17.133h212.932c9.447 0 17.134-7.686 17.134-17.133v-417.733c0-9.447-7.687-17.133-17.134-17.133z" fill="#dedede" data-original="#5ff9fe" style="" class=""/><path d="m345.467 464.867v-417.734c0-9.447-7.687-17.133-17.134-17.133h-17.133v17.133c0 26.031-21.102 47.133-47.133 47.133h-42.2v387.734h106.466c9.447 0 17.134-7.686 17.134-17.133z" fill="#c4c4c4" data-original="#00dde7" style="" class=""/><circle cx="68.267" cy="409.6" fill="#ffcec5" r="34.133" data-original="#ffc5bb" style="" class=""/><path d="m110.933 307.2c18.842 0 34.134-15.292 34.134-34.133s-15.292-34.133-34.134-34.133h-68.266c-18.842 0-34.133 15.292-34.133 34.133s15.291 34.133 34.133 34.133h17.067c-18.842 0-34.133 15.292-34.133 34.133s15.292 34.133 34.133 34.133h51.2c18.842 0 34.134-15.292 34.134-34.133s-15.293-34.133-34.135-34.133z" fill="#ffcec5" data-original="#ffc5bb" style="" class=""/><path d="m254 447.733h-64.267c-8.284 0-15-6.716-15-15s6.716-15 15-15h64.267c8.284 0 15 6.716 15 15s-6.716 15-15 15z" fill="#c4c4c4" data-original="#00dde7" style="" class=""/><path d="m269 432.733c0-8.284-6.716-15-15-15h-32.133v30h32.133c8.284 0 15-6.715 15-15z" fill="#aaaaaa" data-original="#00bdcd" style="" class=""/><path d="m460.8 234v-46.267c0-28.277-22.923-51.2-51.2-51.2h-124.932c-6.405 0-11.601 5.196-11.601 11.602 0 40.656 33.076 73.732 73.732 73.732h28.667v221.867h34.134c28.28 0 51.2-22.921 51.2-51.2h36.2c8.284 0 15-6.716 15-15v-128.534c0-8.284-6.716-15-15-15z" fill="#ffcec5" data-original="#ffc5bb" style="" class=""/><g fill="#ffadad"><path d="m110.933 307.2h-51.2c-18.842 0-34.133 15.292-34.133 34.133s15.292 34.133 34.133 34.133h51.2c18.842 0 34.134-15.292 34.134-34.133s-15.292-34.133-34.134-34.133z" fill="#ffdbce" data-original="#ffadad" style="" class=""/><path d="m375.467 307.2v136.533h34.133c28.28 0 51.2-22.921 51.2-51.2h36.2c8.284 0 15-6.716 15-15v-70.333z" fill="#ffdbce" data-original="#ffadad" style="" class=""/></g></g></g></svg>
