<?xml version="1.0" encoding="utf-8"?>
<!-- Generator: Adobe Illustrator 25.2.0, SVG Export Plug-In . SVG Version: 6.00 Build 0)  -->
<svg version="1.1" id="Capa_1" xmlns="http://www.w3.org/2000/svg" xmlns:xlink="http://www.w3.org/1999/xlink" x="0px" y="0px"
	 viewBox="0 0 800 800" style="enable-background:new 0 0 800 800;" xml:space="preserve">
<style type="text/css">
	.st0{fill:#007CF5;}
</style>
<g id="SVGRepo_bgCarrier">
</g>
<g id="SVGRepo_tracerCarrier">
</g>
<g id="SVGRepo_iconCarrier">
	<g>
		<path class="st0" d="M800,414.6c0,205.3-167,372.4-372.4,372.4C222.8,787.1,56.2,621,55.3,416.4H0l82.8-124.2l82.8,124.2h-48.2
			C118.3,586.7,257,725,427.6,725c171.1,0,310.4-139.2,310.4-310.4S598.7,104.3,427.6,104.3c-17.2,0-31-13.9-31-31.1s13.9-31,31-31
			C632.9,42.2,800,209.3,800,414.6z M427.6,645.7c-127.4,0-231.1-103.6-231.1-231.1c0-5.7-4.6-10.4-10.4-10.4
			c-5.7,0-10.3,4.6-10.3,10.4c0,138.8,112.9,251.8,251.7,251.8c138.8,0,251.7-113,251.7-251.8c0-138.8-113-251.8-251.7-251.8
			c-5.7,0-10.3,4.7-10.3,10.4c0,5.7,4.6,10.4,10.3,10.4c127.3,0,231,103.7,231,231C658.6,542.1,555,645.7,427.6,645.7z M308.1,565.7
			c6.1,6.1,14,9.1,21.9,9.1c7.9,0,15.9-3,21.9-9.1l97.5-97.5c5.8-5.8,9.1-13.7,9.1-21.9V270.7c0-17.2-13.9-31.1-31-31.1
			c-17.2,0-31,13.9-31,31.1v162.7l-88.4,88.4C296,533.9,296,553.5,308.1,565.7z M72.4,162.9c0-82.9,67.2-150,150-150
			s150,67.2,150,150s-67.2,150-150,150S72.4,245.8,72.4,162.9z M118.1,165.1l67,66.9c4,4.1,9.3,6.1,14.6,6.1c5.3,0,10.6-2,14.6-6.1
			l112.2-112.2c8.1-8.1,8.1-21.2,0-29.3c-8.1-8.1-21.2-8.1-29.3,0l-97.6,97.5l-52.3-52.3c-8.1-8.1-21.2-8.1-29.3,0
			C110,143.9,110,157,118.1,165.1z"/>
	</g>
</g>
</svg>
