<?xml version="1.0" encoding="utf-8"?>
<!-- Generator: Adobe Illustrator 25.2.0, SVG Export Plug-In . SVG Version: 6.00 Build 0)  -->
<svg version="1.1" id="Layer_1" xmlns:svgjs="http://svgjs.com/svgjs"
	 xmlns="http://www.w3.org/2000/svg" xmlns:xlink="http://www.w3.org/1999/xlink" x="0px" y="0px" viewBox="0 0 512 512"
	 style="enable-background:new 0 0 512 512;" xml:space="preserve">
<style type="text/css">
	.st0{fill:#E7E7E7;}
	.st1{fill:#CCCCCC;}
	.st2{fill:#3ABABE;}
	.st3{fill:#1FB3B7;}
	.st4{fill:#00AFBF;}
	.st5{fill:#1A8C9A;}
	.st6{fill:#E1FAF7;}
	.st7{fill:#BFFFFE;}
</style>
<g>
	<path class="st0" d="M481.9,339.4C420.1,469,325,497,256,497c-77.7,0-150.9-38.8-195.9-102.1C14.8,331,4,250,30.1,172.6l4.8-9.9
		C71.5,75.4,160.3,15,256,15c77.7,0,150.9,38.8,195.9,102.1C497.2,181,508,262,481.9,339.4z"/>
	<path class="st1" d="M481.9,339.4C420.1,469,325,497,256,497V15c77.7,0,150.9,38.8,195.9,102.1C497.2,181,508,262,481.9,339.4z"/>
	<path class="st2" d="M464.2,108.4C416.2,41.2,338.5,0,256,0C153.1,0,58.9,64.6,20.2,159.7l-5.1,10.5
		c-27.5,83.9-16.8,163.3,32.7,233.4C95.8,470.8,173.5,512,256,512c101.7,0,194.7-63.1,234.6-156.1l4.5-9
		C525.1,261.6,514.6,179.6,464.2,108.4z M72.4,386.2c-42.6-60-52.5-135.9-27.9-208.8l3.9-8.1C72.7,111.1,121,66,178.6,44.4
		C142.3,91.8,120.4,184,123.1,214c-0.3,0.9-0.6,1.8-0.6,3c-7.8,100.5,15,197.5,57.9,251.8C137.5,453.2,99.4,424.3,72.4,386.2z
		 M241,479.3c-10.5-3.6-21-11.5-30.9-22c-42-45.3-65.1-141-57.6-237.9v-2.7c0-0.9,0.3-2.1,0.3-3c8.7-93.3,45.3-166.9,88.2-181V479.3
		z M271,479V32.7C317.2,48,355.9,133,360.4,234.4c4.2,93.6-19.2,181.5-59.7,224.1C291.1,468.4,281.2,475.7,271,479z M467.5,334.6
		c-33.6,70.8-81,114.4-135.9,133.9c40.2-50.7,63-141.1,58.8-235.3c-3.6-79.8-26.1-148.6-58.8-190c42.9,15.6,81,44.5,108,82.6
		C482.2,185.8,492.1,261.7,467.5,334.6z"/>
	<path class="st3" d="M464.2,108.4C416.2,41.2,338.5,0,256,0v512c101.7,0,194.7-63.1,234.6-156.1l4.5-9
		C525.1,261.6,514.6,179.6,464.2,108.4z M271,479V32.7C317.2,48,355.9,133,360.4,234.4c4.2,93.6-19.2,181.5-59.7,224.1
		C291.1,468.4,281.2,475.7,271,479z M467.5,334.6c-33.6,70.8-81,114.4-135.9,133.9c40.2-50.7,63-141.1,58.8-235.3
		c-3.6-79.8-26.1-148.6-58.8-190c42.9,15.6,81,44.5,108,82.6C482.2,185.8,492.1,261.7,467.5,334.6z"/>
	<path class="st4" d="M466,151H46c-24.9,0-46,20.1-46,45v120c0,24.9,21.1,45,46,45h420c24.9,0,46-20.1,46-45V196
		C512,171.1,490.9,151,466,151z"/>
	<path class="st5" d="M512,196v120c0,24.9-21.1,45-46,45H256V151h210C490.9,151,512,171.1,512,196z"/>
	<path class="st6" d="M329.5,232.6l-30,60c-2.7,5.1-7.8,8.4-13.5,8.4s-10.8-3.3-13.5-8.4l-16.5-33l-16.5,33
		c-5.1,10.2-21.9,10.2-27,0l-30-60c-3.6-7.2-0.6-16.2,6.9-20.1c7.2-3.6,16.2-0.6,20.1,6.9l16.5,33l16.5-33c2.7-5.1,8.1-7.8,13.5-7.8
		c5.4,0,10.8,2.7,13.5,7.8l16.5,33l16.5-33c3.9-7.5,12.9-10.5,20.1-6.9C330.1,216.4,333.1,225.4,329.5,232.6z"/>
	<path class="st7" d="M436,301c-5.7,0-10.9-3.2-13.4-8.3L406,259.5l-16.6,33.2c-5.1,10.2-21.7,10.2-26.8,0l-28.7-57.5
		c-1.9-2.3-3.1-5.1-3.3-8.2c-0.5-8.3,5.3-15.4,13.5-15.9c6.3-0.1,12.6,2.8,15.3,8.2l16.6,33.2l16.6-33.2c5.1-10.2,21.7-10.2,26.8,0
		l16.6,33.2l16.6-33.2c3.7-7.4,12.7-10.4,20.1-6.7c7.4,3.7,10.4,12.7,6.7,20.1l-30,60C446.9,297.8,441.7,301,436,301z"/>
	<path class="st6" d="M167,211c-5.9-0.1-11.7,2.9-14.4,8.3L136,252.5l-16.6-33.2c-5.4-10.8-21.5-10.7-26.8,0L76,252.5l-16.6-33.2
		c-3.7-7.4-12.7-10.4-20.1-6.7c-7.4,3.7-10.4,12.7-6.7,20.1l30,60c2.5,5.1,7.7,8.3,13.4,8.3s10.9-3.2,13.4-8.3l16.6-33.2l16.6,33.2
		c2.5,5.1,7.7,8.3,13.4,8.3s10.9-3.2,13.4-8.3l28.3-56.5c2.1-2.4,3.5-5.6,3.8-9.2C182,218.7,175.2,211.6,167,211z"/>
	<path class="st7" d="M329.5,232.6l-30,60c-2.7,5.1-7.8,8.4-13.5,8.4s-10.8-3.3-13.5-8.4l-16.5-33v-48c5.4,0,10.8,2.7,13.5,7.8
		l16.5,33l16.5-33c3.9-7.5,12.9-10.5,20.1-6.9C330.1,216.4,333.1,225.4,329.5,232.6z"/>
</g>
</svg>
